<svg width="24" height="24" viewBox="0 0 24 24" fill="#161614" xmlns="http://www.w3.org/2000/svg">
<mask id="mask0_2197_735" style="mask-type:alpha" maskUnits="userSpaceOnUse" x="4" y="4" width="16" height="16">
<rect x="4.80029" y="19.1997" width="14.4" height="14.4" transform="rotate(-90 4.80029 19.1997)" fill="#D9D9D9"/>
</mask>
<g mask="url(#mask0_2197_735)">
<path d="M11.9996 13.9717L16.7234 9.24774C16.8006 9.17054 16.8955 9.13214 17.0081 9.13254C17.1206 9.13294 17.2163 9.17174 17.2951 9.24894C17.3738 9.32254 17.4131 9.41689 17.4131 9.53199C17.4131 9.64709 17.3738 9.74404 17.2951 9.82284L12.6085 14.5028C12.5213 14.5899 12.425 14.653 12.3196 14.692C12.2142 14.731 12.1075 14.7505 11.9996 14.7505C11.8917 14.7505 11.7851 14.731 11.6797 14.692C11.5743 14.653 11.4755 14.5899 11.3832 14.5028L6.70075 9.81279C6.62205 9.73919 6.5833 9.64629 6.5845 9.53409C6.5856 9.42189 6.6255 9.32644 6.7042 9.24774C6.783 9.17054 6.8783 9.13159 6.9901 9.13089C7.1018 9.13009 7.19705 9.16904 7.27585 9.24774L11.9996 13.9717Z" fill="#7F7F7F"/>
</g>
</svg>
