<svg width="56" height="56" viewBox="0 0 56 56" fill="none" xmlns="http://www.w3.org/2000/svg">
<mask id="mask0_2254_170" style="mask-type:alpha" maskUnits="userSpaceOnUse" x="0" y="0" width="56" height="56">
<rect y="56" width="56" height="56" transform="rotate(-90 0 56)" fill="#D9D9D9"/>
</mask>
<g mask="url(#mask0_2254_170)">
<path d="M29.75 17.2037L29.75 43.75C29.75 44.2466 29.5824 44.6623 29.2472 44.9972C28.9124 45.3324 28.4966 45.5 28 45.5C27.5034 45.5 27.0877 45.3324 26.7529 44.9972C26.4176 44.6623 26.25 44.2466 26.25 43.75L26.25 17.2037L14.1884 29.2652C13.8415 29.6121 13.4355 29.7834 12.9704 29.7792C12.5053 29.7745 12.0917 29.5913 11.7297 29.2297C11.3917 28.8676 11.2167 28.4577 11.2047 28C11.1926 27.5423 11.3676 27.1324 11.7297 26.7703L26.5236 11.9764C26.7422 11.7579 26.9726 11.6039 27.2149 11.5144C27.4571 11.4246 27.7189 11.3797 28 11.3797C28.2812 11.3797 28.5429 11.4246 28.7852 11.5144C29.0275 11.6039 29.2579 11.7579 29.4764 11.9764L44.2704 26.7703C44.5935 27.0935 44.7588 27.4937 44.7662 27.9708C44.7736 28.448 44.6083 28.8676 44.2704 29.2297C43.9083 29.5913 43.4926 29.7722 43.0232 29.7722C42.5534 29.7722 42.1375 29.5913 41.7754 29.2297L29.75 17.2037Z" fill="#222222"/>
</g>
</svg>
