<svg width="20" height="10" viewBox="0 0 20 10" fill="none" xmlns="http://www.w3.org/2000/svg">
<path d="M9.9999 8.28598L17.8729 0.412736C18.0016 0.284069 18.1597 0.220069 18.3474 0.220736C18.5349 0.221402 18.6943 0.286069 18.8257 0.414736C18.9568 0.537402 19.0224 0.694653 19.0224 0.886485C19.0224 1.07832 18.9568 1.2399 18.8257 1.37123L11.0147 9.17124C10.8693 9.3164 10.7088 9.42148 10.5332 9.48648C10.3575 9.55148 10.1797 9.58398 9.9999 9.58398C9.82007 9.58398 9.64232 9.55148 9.46665 9.48648C9.29099 9.42148 9.12624 9.3164 8.9724 9.17124L1.1684 1.35448C1.03724 1.23182 0.972655 1.07698 0.974655 0.889984C0.976488 0.702985 1.04299 0.543902 1.17415 0.412736C1.30549 0.284069 1.46432 0.219152 1.65066 0.217984C1.83682 0.216651 1.99557 0.281569 2.12691 0.412736L9.9999 8.28598Z" />
</svg>
