<svg width="36" height="36" viewBox="0 0 36 36" fill="none" xmlns="http://www.w3.org/2000/svg">
<path d="M10.0663 20.2501L4.5 24.7501V6.75006C4.5 6.45169 4.61853 6.16554 4.82951 5.95457C5.04048 5.74359 5.32663 5.62506 5.625 5.62506H23.625C23.9234 5.62506 24.2095 5.74359 24.4205 5.95457C24.6315 6.16554 24.75 6.45169 24.75 6.75006V19.1251C24.75 19.4234 24.6315 19.7096 24.4205 19.9206C24.2095 20.1315 23.9234 20.2501 23.625 20.2501H10.0663Z" stroke="#222222" stroke-width="2" stroke-linecap="round" stroke-linejoin="round"/>
<path d="M11.25 20.2501V25.8751C11.25 26.1734 11.3685 26.4596 11.5795 26.6706C11.7905 26.8815 12.0766 27.0001 12.375 27.0001H25.9337L31.5 31.5001V13.5001C31.5 13.2017 31.3815 12.9155 31.1705 12.7046C30.9595 12.4936 30.6734 12.3751 30.375 12.3751H24.75" stroke="#222222" stroke-width="2" stroke-linecap="round" stroke-linejoin="round"/>
</svg>
