<svg width="14" height="18" viewBox="0 0 14 18" fill="none" xmlns="http://www.w3.org/2000/svg">
<path d="M0.84 18V15.912L7.512 9.576C8.072 9.048 8.488 8.584 8.76 8.184C9.032 7.784 9.208 7.416 9.288 7.08C9.384 6.728 9.432 6.4 9.432 6.096C9.432 5.328 9.168 4.736 8.64 4.32C8.112 3.888 7.336 3.672 6.312 3.672C5.496 3.672 4.752 3.816 4.08 4.104C3.424 4.392 2.856 4.832 2.376 5.424L0.192 3.744C0.848 2.864 1.728 2.184 2.832 1.704C3.952 1.208 5.2 0.959999 6.576 0.959999C7.792 0.959999 8.848 1.16 9.744 1.56C10.656 1.944 11.352 2.496 11.832 3.216C12.328 3.936 12.576 4.792 12.576 5.784C12.576 6.328 12.504 6.872 12.36 7.416C12.216 7.944 11.944 8.504 11.544 9.096C11.144 9.688 10.56 10.352 9.792 11.088L4.056 16.536L3.408 15.36H13.224V18H0.84Z" fill="#FB9B2A"/>
</svg>
