<svg width="13" height="18" viewBox="0 0 13 18"fill="#FB9B2A" xmlns="http://www.w3.org/2000/svg">
<path d="M6.336 17.24C5.152 17.24 3.992 17.072 2.856 16.736C1.736 16.384 0.792 15.904 0.024 15.296L1.368 12.872C1.976 13.368 2.712 13.768 3.576 14.072C4.44 14.376 5.344 14.528 6.288 14.528C7.408 14.528 8.28 14.304 8.904 13.856C9.528 13.392 9.84 12.768 9.84 11.984C9.84 11.216 9.552 10.608 8.976 10.16C8.4 9.712 7.472 9.488 6.192 9.488H4.656V7.352L9.456 1.64L9.864 2.816H0.84V0.199999H12.288V2.288L7.488 8L5.856 7.04H6.792C8.856 7.04 10.4 7.504 11.424 8.432C12.464 9.344 12.984 10.52 12.984 11.96C12.984 12.904 12.744 13.776 12.264 14.576C11.784 15.376 11.048 16.024 10.056 16.52C9.08 17 7.84 17.24 6.336 17.24Z" fill="#FB9B2A"/>
</svg>
