<svg width="42" height="42" viewBox="0 0 42 42" fill="none" xmlns="http://www.w3.org/2000/svg">
<path opacity="0.2" d="M38.0625 21C38.0625 23.0524 35.1389 24.6012 34.3416 26.5273C33.5738 28.3845 34.5745 31.5558 33.0652 33.0652C31.5558 34.5745 28.3845 33.5738 26.5273 34.3416C24.6094 35.1389 23.0508 38.0625 21 38.0625C18.9492 38.0625 17.3906 35.1389 15.4727 34.3416C13.6155 33.5738 10.4442 34.5745 8.93484 33.0652C7.42547 31.5558 8.42625 28.3845 7.65844 26.5273C6.86109 24.6094 3.9375 23.0508 3.9375 21C3.9375 18.9492 6.86109 17.3906 7.65844 15.4727C8.42625 13.6172 7.42547 10.4442 8.93484 8.93484C10.4442 7.42547 13.6172 8.42625 15.4727 7.65844C17.3988 6.86109 18.9492 3.9375 21 3.9375C23.0508 3.9375 24.6094 6.86109 26.5273 7.65844C28.3845 8.42625 31.5558 7.42547 33.0652 8.93484C34.5745 10.4442 33.5738 13.6155 34.3416 15.4727C35.1389 17.3988 38.0625 18.9492 38.0625 21Z" fill="#FB9B2A"/>
<path d="M37.0552 16.8689C36.4366 16.2225 35.7968 15.5564 35.5556 14.9707C35.3325 14.4342 35.3194 13.545 35.3062 12.6837C35.2816 11.0824 35.2554 9.26789 33.9937 8.00625C32.7321 6.74461 30.9176 6.71836 29.3163 6.69375C28.455 6.68062 27.5658 6.6675 27.0293 6.44437C26.4452 6.2032 25.7775 5.56336 25.1311 4.94484C23.9991 3.85711 22.7128 2.625 21 2.625C19.2872 2.625 18.0026 3.85711 16.8689 4.94484C16.2225 5.56336 15.5564 6.2032 14.9707 6.44437C14.4375 6.6675 13.545 6.68062 12.6837 6.69375C11.0824 6.71836 9.26789 6.74461 8.00625 8.00625C6.74461 9.26789 6.72656 11.0824 6.69375 12.6837C6.68062 13.545 6.6675 14.4342 6.44437 14.9707C6.2032 15.5548 5.56336 16.2225 4.94484 16.8689C3.85711 18.0009 2.625 19.2872 2.625 21C2.625 22.7128 3.85711 23.9974 4.94484 25.1311C5.56336 25.7775 6.2032 26.4436 6.44437 27.0293C6.6675 27.5658 6.68062 28.455 6.69375 29.3163C6.71836 30.9176 6.74461 32.7321 8.00625 33.9937C9.26789 35.2554 11.0824 35.2816 12.6837 35.3062C13.545 35.3194 14.4342 35.3325 14.9707 35.5556C15.5548 35.7968 16.2225 36.4366 16.8689 37.0552C18.0009 38.1429 19.2872 39.375 21 39.375C22.7128 39.375 23.9974 38.1429 25.1311 37.0552C25.7775 36.4366 26.4436 35.7968 27.0293 35.5556C27.5658 35.3325 28.455 35.3194 29.3163 35.3062C30.9176 35.2816 32.7321 35.2554 33.9937 33.9937C35.2554 32.7321 35.2816 30.9176 35.3062 29.3163C35.3194 28.455 35.3325 27.5658 35.5556 27.0293C35.7968 26.4452 36.4366 25.7775 37.0552 25.1311C38.1429 23.9991 39.375 22.7128 39.375 21C39.375 19.2872 38.1429 18.0026 37.0552 16.8689ZM35.1602 23.3149C34.3744 24.1352 33.5606 24.9834 33.1291 26.0252C32.7157 27.026 32.6977 28.1695 32.6812 29.277C32.6648 30.4254 32.6468 31.628 32.1366 32.1366C31.6263 32.6452 30.432 32.6648 29.277 32.6812C28.1695 32.6977 27.026 32.7157 26.0252 33.1291C24.9834 33.5606 24.1352 34.3744 23.3149 35.1602C22.4946 35.9461 21.6562 36.75 21 36.75C20.3438 36.75 19.4988 35.9428 18.6851 35.1602C17.8713 34.3777 17.0166 33.5606 15.9748 33.1291C14.974 32.7157 13.8305 32.6977 12.723 32.6812C11.5746 32.6648 10.372 32.6468 9.86344 32.1366C9.35484 31.6263 9.33516 30.432 9.31875 29.277C9.30234 28.1695 9.2843 27.026 8.87086 26.0252C8.43937 24.9834 7.62562 24.1352 6.83977 23.3149C6.05391 22.4946 5.25 21.6562 5.25 21C5.25 20.3438 6.05719 19.4988 6.83977 18.6851C7.62234 17.8713 8.43937 17.0166 8.87086 15.9748C9.2843 14.974 9.30234 13.8305 9.31875 12.723C9.33516 11.5746 9.3532 10.372 9.86344 9.86344C10.3737 9.35484 11.568 9.33516 12.723 9.31875C13.8305 9.30234 14.974 9.2843 15.9748 8.87086C17.0166 8.43937 17.8648 7.62562 18.6851 6.83977C19.5054 6.05391 20.3438 5.25 21 5.25C21.6562 5.25 22.5012 6.05719 23.3149 6.83977C24.1287 7.62234 24.9834 8.43937 26.0252 8.87086C27.026 9.2843 28.1695 9.30234 29.277 9.31875C30.4254 9.33516 31.628 9.3532 32.1366 9.86344C32.6452 10.3737 32.6648 11.568 32.6812 12.723C32.6977 13.8305 32.7157 14.974 33.1291 15.9748C33.5606 17.0166 34.3744 17.8648 35.1602 18.6851C35.9461 19.5054 36.75 20.3438 36.75 21C36.75 21.6562 35.9428 22.5012 35.1602 23.3149ZM28.4911 16.1339C28.6131 16.2558 28.7099 16.4006 28.776 16.5599C28.842 16.7192 28.876 16.89 28.876 17.0625C28.876 17.235 28.842 17.4058 28.776 17.5651C28.7099 17.7244 28.6131 17.8692 28.4911 17.9911L19.3036 27.1786C19.1817 27.3006 19.0369 27.3974 18.8776 27.4635C18.7183 27.5295 18.5475 27.5635 18.375 27.5635C18.2025 27.5635 18.0317 27.5295 17.8724 27.4635C17.7131 27.3974 17.5683 27.3006 17.4464 27.1786L13.5089 23.2411C13.2626 22.9948 13.1243 22.6608 13.1243 22.3125C13.1243 21.9642 13.2626 21.6302 13.5089 21.3839C13.7552 21.1376 14.0892 20.9993 14.4375 20.9993C14.7858 20.9993 15.1198 21.1376 15.3661 21.3839L18.375 24.3945L26.6339 16.1339C26.7558 16.0119 26.9006 15.9151 27.0599 15.849C27.2192 15.783 27.39 15.749 27.5625 15.749C27.735 15.749 27.9058 15.783 28.0651 15.849C28.2244 15.9151 28.3692 16.0119 28.4911 16.1339Z" fill="#FB9B2A"/>
</svg>
