<svg width="43" height="42" viewBox="0 0 43 42" fill="none" xmlns="http://www.w3.org/2000/svg">
<path opacity="0.2" d="M19.6167 2.625L3.89455 18.3471C3.65073 18.5909 3.45732 18.8803 3.32536 19.1988C3.19341 19.5173 3.12549 19.8587 3.12549 20.2035C3.12549 20.5482 3.19341 20.8896 3.32536 21.2082C3.45732 21.5267 3.65073 21.8161 3.89455 22.0598L17.8152 35.9805C18.059 36.2244 18.3484 36.4178 18.6669 36.5497C18.9855 36.6817 19.3268 36.7496 19.6716 36.7496C20.0164 36.7496 20.3578 36.6817 20.6763 36.5497C20.9948 36.4178 21.2842 36.2244 21.528 35.9805L37.2501 20.2584L19.6167 2.625ZM18.524 21.3511C18.065 20.8922 17.7524 20.3076 17.6257 19.6711C17.499 19.0345 17.5639 18.3747 17.8123 17.7751C18.0606 17.1755 18.4812 16.663 19.0208 16.3024C19.5604 15.9418 20.1948 15.7493 20.8438 15.7493C21.4929 15.7493 22.1273 15.9418 22.6669 16.3024C23.2065 16.663 23.6271 17.1755 23.8754 17.7751C24.1237 18.3747 24.1887 19.0345 24.062 19.6711C23.9353 20.3076 23.6227 20.8922 23.1637 21.3511C22.5484 21.9662 21.7139 22.3118 20.8438 22.3118C19.9738 22.3118 19.1393 21.9662 18.524 21.3511ZM41.1876 33.4688C41.1876 34.339 40.8419 35.1736 40.2265 35.7889C39.6112 36.4043 38.7766 36.75 37.9063 36.75C37.0361 36.75 36.2015 36.4043 35.5861 35.7889C34.9708 35.1736 34.6251 34.339 34.6251 33.4688C34.6251 30.1875 37.9063 27.5625 37.9063 27.5625C37.9063 27.5625 41.1876 30.1875 41.1876 33.4688Z" fill="#FB9B2A"/>
<path d="M38.7264 26.5373C38.4936 26.3509 38.2043 26.2494 37.9061 26.2494C37.6079 26.2494 37.3186 26.3509 37.0858 26.5373C36.9316 26.662 33.3124 29.602 33.3124 33.469C33.3124 34.6873 33.7963 35.8557 34.6578 36.7172C35.5193 37.5787 36.6878 38.0627 37.9061 38.0627C39.1244 38.0627 40.2929 37.5787 41.1544 36.7172C42.0159 35.8557 42.4999 34.6873 42.4999 33.469C42.4999 29.602 38.8806 26.662 38.7264 26.5373ZM37.9061 35.4377C37.384 35.4377 36.8832 35.2303 36.514 34.8611C36.1448 34.4919 35.9374 33.9911 35.9374 33.469C35.9374 31.7988 37.0858 30.2648 37.9061 29.3789C38.7264 30.2681 39.8749 31.807 39.8749 33.469C39.8749 33.9911 39.6674 34.4919 39.2982 34.8611C38.929 35.2303 38.4282 35.4377 37.9061 35.4377ZM38.1784 19.3317L20.5434 1.69662C20.2973 1.45066 19.9635 1.3125 19.6156 1.3125C19.2676 1.3125 18.9339 1.45066 18.6878 1.69662L12.0252 8.3674L7.98931 4.32162C7.74303 4.07556 7.40909 3.93741 7.06095 3.93756C6.71282 3.93772 6.379 4.07616 6.13294 4.32244C5.88688 4.56872 5.74873 4.90266 5.74888 5.25079C5.74904 5.59893 5.88748 5.93275 6.13376 6.17881L10.1697 10.2147L2.96079 17.4187C2.22242 18.1571 1.80762 19.1586 1.80762 20.2029C1.80762 21.2471 2.22242 22.2486 2.96079 22.987L16.8881 36.9143C17.6265 37.6526 18.628 38.0675 19.6722 38.0675C20.7164 38.0675 21.7179 37.6526 22.4563 36.9143L38.1784 21.1922C38.301 21.0702 38.3982 20.9253 38.4645 20.7656C38.5309 20.606 38.565 20.4348 38.565 20.2619C38.565 20.0891 38.5309 19.9179 38.4645 19.7583C38.3982 19.5986 38.301 19.4537 38.1784 19.3317ZM20.5992 35.0538C20.353 35.2998 20.0193 35.4379 19.6714 35.4379C19.3234 35.4379 18.9897 35.2998 18.7436 35.0538L4.82126 21.1315C4.57531 20.8853 4.43714 20.5516 4.43714 20.2037C4.43714 19.8557 4.57531 19.522 4.82126 19.2759L12.0252 12.0703L16.8027 16.8478C16.2784 17.8187 16.1211 18.9458 16.3595 20.0232C16.5979 21.1006 17.2161 22.0561 18.1011 22.7151C18.9861 23.3741 20.0788 23.6926 21.1793 23.6122C22.2798 23.5319 23.3145 23.0581 24.0944 22.2775C24.8743 21.4969 25.3472 20.4617 25.4266 19.3611C25.506 18.2606 25.1865 17.1682 24.5268 16.2838C23.867 15.3994 22.9109 14.782 21.8333 14.5445C20.7557 14.3071 19.6287 14.4654 18.6583 14.9906L13.8824 10.2147L19.6246 4.48076L35.4025 20.2587L20.5992 35.0538ZM19.4507 17.6402C19.821 17.1985 20.3515 16.9218 20.9257 16.8709C21.4998 16.8199 22.0707 16.999 22.513 17.3686C22.9553 17.7383 23.2328 18.2684 23.2845 18.8425C23.3363 19.4166 23.1581 19.9877 22.7891 20.4305C22.4201 20.8733 21.8904 21.1516 21.3164 21.2042C20.7424 21.2568 20.171 21.0795 19.7276 20.7111C19.2843 20.3428 19.0052 19.8135 18.9518 19.2396C18.8983 18.6656 19.0748 18.094 19.4425 17.6501C19.4425 17.6501 19.4507 17.6419 19.4507 17.6402Z" fill="#FB9B2A"/>
</svg>
