<svg width="42" height="42" viewBox="0 0 42 42" fill="none" xmlns="http://www.w3.org/2000/svg">
<path opacity="0.2" d="M36.75 20.9999C36.7494 18.2353 36.0211 15.5196 34.6384 13.1257C33.2556 10.7318 31.2671 8.74406 28.8727 7.36219C26.4783 5.98032 23.7623 5.25303 20.9978 5.25342C18.2332 5.25381 15.5175 5.98186 13.1235 7.3644C10.7295 8.74695 8.74151 10.7353 7.35944 13.1296C5.97736 15.5239 5.24984 18.2397 5.25 21.0043C5.25016 23.7689 5.97798 26.4847 7.36032 28.8788C8.74266 31.2729 10.7308 33.261 13.125 34.6433V28.8749L21 11.8124L28.875 28.8749V34.6433C31.2698 33.2607 33.2584 31.2719 34.6408 28.8769C36.0232 26.4819 36.7506 23.7652 36.75 20.9999Z" fill="#FB9B2A"/>
<path d="M33.0654 8.93505C29.8655 5.73517 25.5255 3.9375 21.0002 3.9375C16.4749 3.9375 12.1349 5.73517 8.93505 8.93505C5.73517 12.1349 3.9375 16.4749 3.9375 21.0002C3.9375 25.5255 5.73517 29.8655 8.93505 33.0654C12.1349 36.2652 16.4749 38.0629 21.0002 38.0629C25.5255 38.0629 29.8655 36.2652 33.0654 33.0654C36.2652 29.8655 38.0629 25.5255 38.0629 21.0002C38.0629 16.4749 36.2652 12.1349 33.0654 8.93505ZM14.4377 31.5002C14.4377 30.804 14.7143 30.1363 15.2066 29.6441C15.6988 29.1518 16.3665 28.8752 17.0627 28.8752C17.7589 28.8752 18.4266 29.1518 18.9189 29.6441C19.4111 30.1363 19.6877 30.804 19.6877 31.5002V35.3704C17.8574 35.205 16.0755 34.6916 14.4377 33.8578V31.5002ZM22.3127 31.5002C22.3127 30.804 22.5893 30.1363 23.0816 29.6441C23.5738 29.1518 24.2415 28.8752 24.9377 28.8752C25.6339 28.8752 26.3016 29.1518 26.7939 29.6441C27.2861 30.1363 27.5627 30.804 27.5627 31.5002V33.8578C25.9249 34.6916 24.143 35.205 22.3127 35.3704V31.5002ZM17.5992 22.3127H24.4012L26.3011 26.4307C25.356 26.1759 24.3584 26.1911 23.4215 26.4744C22.4846 26.7577 21.6458 27.2978 21.0002 28.0336C20.3546 27.2978 19.5158 26.7577 18.5789 26.4744C17.642 26.1911 16.6444 26.1759 15.6993 26.4307L17.5992 22.3127ZM18.8116 19.6877L21.0002 14.9447L23.1888 19.6877H18.8116ZM31.2082 31.2098C30.8801 31.5379 30.5388 31.8447 30.1877 32.1351V28.8752C30.1879 28.6853 30.1465 28.4977 30.0663 28.3256L22.1913 11.2631C22.0861 11.0358 21.918 10.8433 21.707 10.7085C21.4959 10.5736 21.2507 10.5019 21.0002 10.5019C20.7497 10.5019 20.5045 10.5736 20.2934 10.7085C20.0824 10.8433 19.9143 11.0358 19.8091 11.2631L11.9341 28.3256C11.8539 28.4977 11.8125 28.6853 11.8127 28.8752V32.1351C11.4616 31.8447 11.1204 31.5379 10.7922 31.2098C8.77287 29.1908 7.39758 26.6183 6.8403 23.8176C6.28303 21.0169 6.56879 18.1139 7.66146 15.4757C8.75412 12.8374 10.6046 10.5824 12.9789 8.99591C15.3532 7.40938 18.1446 6.56258 21.0002 6.56258C23.8558 6.56258 26.6472 7.40938 29.0215 8.99591C31.3958 10.5824 33.2463 12.8374 34.339 15.4757C35.4316 18.1139 35.7174 21.0169 35.1601 23.8176C34.6028 26.6183 33.2275 29.1908 31.2082 31.2098Z" fill="#FB9B2A"/>
</svg>
