<svg width="44" height="44" viewBox="0 0 44 44" fill="none" xmlns="http://www.w3.org/2000/svg">
<path d="M36.5527 0H7.44726C3.33425 0 0 3.33425 0 7.44726V36.5527C0 40.6657 3.33425 44 7.44726 44H36.5527C40.6657 44 44 40.6657 44 36.5527V7.44726C44 3.33425 40.6657 0 36.5527 0Z" fill="#01E311"/>
<path d="M33.6164 15.0409C31.6057 11.4822 27.8076 9.17356 23.6691 9.04057C19.472 8.90758 15.1552 11.0247 12.9476 15.0702C10.9369 18.7593 11.0965 23.2888 13.3519 26.8954C13.0514 28.5391 12.7508 30.1802 12.4503 31.8239C14.2084 31.5366 15.9638 31.252 17.7219 30.9648C18.3549 31.3079 22.5679 33.5075 27.4858 31.6882C28.1028 31.4595 32.8558 29.611 34.5633 24.3846C36.1193 19.629 33.9729 15.6739 33.6138 15.0383L33.6164 15.0409ZM32.8425 23.6851C31.4621 28.1029 27.4831 29.72 26.9591 29.9222C22.3605 31.6962 18.3868 29.2705 17.9639 29.0019C16.892 29.2306 15.8202 29.4594 14.7483 29.6881L15.2536 26.422C13.0647 23.3845 12.7801 19.3657 14.5169 16.0782C16.3441 12.6259 19.964 10.812 23.4855 10.8758C26.9751 10.9396 30.204 12.844 31.9382 15.8202C32.2467 16.3522 34.1005 19.6609 32.8425 23.6877V23.6851Z" fill="white"/>
<path d="M20.3761 15.28C20.5065 15.28 20.6208 15.3625 20.6634 15.4848C20.8815 16.1391 21.7433 18.1472 21.6741 18.3626C21.5943 18.6233 20.6022 19.3813 20.5623 19.751C20.5224 20.1207 21.2592 21.15 22.0332 21.9559C23.0838 23.0544 24.7434 23.7752 24.8791 23.8337C25.0147 23.8922 26.0467 22.3709 26.2595 22.2751C26.4723 22.1794 29.2144 23.6582 29.2144 23.9109C29.2144 24.1635 28.999 25.0306 28.4963 25.7195C28.1452 26.1982 27.3686 26.4083 26.7914 26.4855C26.7781 26.4855 26.7648 26.4855 26.7515 26.4855C26.3153 26.4137 23.3072 26.0732 20.7192 23.5225C18.6154 21.4479 17.9824 19.0861 17.7855 18.1445C17.7829 18.1312 17.7802 18.1179 17.7802 18.1046C17.7696 17.7881 17.7802 16.8546 18.4452 16.0354C18.7032 15.7189 19.1527 15.4183 19.3149 15.3146C19.3548 15.288 19.4 15.2773 19.4479 15.2773H20.3761V15.28Z" fill="white"/>
</svg>
