<svg fill="none" xmlns="http://www.w3.org/2000/svg" viewBox="0 0 36 36" width="36px" height="36px" >
<path d="M10.0663 20.25L4.5 24.75V6.75C4.5 6.45163 4.61853 6.16548 4.82951 5.95451C5.04048 5.74353 5.32663 5.625 5.625 5.625H23.625C23.9234 5.625 24.2095 5.74353 24.4205 5.95451C24.6315 6.16548 24.75 6.45163 24.75 6.75V19.125C24.75 19.4234 24.6315 19.7095 24.4205 19.9205C24.2095 20.1315 23.9234 20.25 23.625 20.25H10.0663Z" stroke="#222222" stroke-width="1.8" stroke-linecap="round" stroke-linejoin="round"/>
<path d="M11.25 20.25V25.875C11.25 26.1734 11.3685 26.4595 11.5795 26.6705C11.7905 26.8815 12.0766 27 12.375 27H25.9337L31.5 31.5V13.5C31.5 13.2016 31.3815 12.9155 31.1705 12.7045C30.9595 12.4935 30.6734 12.375 30.375 12.375H24.75" stroke="#222222" stroke-width="1.8" stroke-linecap="round" stroke-linejoin="round"/>
</svg>
