<svg width="40" height="40" viewBox="0 0 40 40" fill="none" xmlns="http://www.w3.org/2000/svg">
<mask id="mask0_2066_661" style="mask-type:alpha" maskUnits="userSpaceOnUse" x="0" y="0" width="40" height="40">
<rect width="40" height="40" fill="#D9D9D9"/>
</mask>
<g mask="url(#mask0_2066_661)">
<path d="M19.9999 21.4742L11.2629 30.2117C11.062 30.4125 10.819 30.5156 10.5337 30.5208C10.2484 30.5261 9.99994 30.4231 9.78827 30.2117C9.57689 30 9.47119 29.7542 9.47119 29.4742C9.47119 29.1944 9.57689 28.9488 9.78827 28.7371L18.5258 20L9.78827 11.2629C9.58744 11.0621 9.48439 10.819 9.47911 10.5338C9.47383 10.2485 9.57689 10 9.78827 9.78834C9.99994 9.57695 10.2458 9.47125 10.5258 9.47125C10.8055 9.47125 11.0512 9.57695 11.2629 9.78834L19.9999 18.5258L28.737 9.78834C28.9379 9.5875 29.1809 9.48445 29.4662 9.47917C29.7515 9.47389 29.9999 9.57695 30.2116 9.78834C30.423 10 30.5287 10.2458 30.5287 10.5258C30.5287 10.8056 30.423 11.0513 30.2116 11.2629L21.4741 20L30.2116 28.7371C30.4124 28.9379 30.5155 29.181 30.5208 29.4663C30.5261 29.7515 30.423 30 30.2116 30.2117C29.9999 30.4231 29.7541 30.5288 29.4741 30.5288C29.1944 30.5288 28.9487 30.4231 28.737 30.2117L19.9999 21.4742Z" fill="#161614"/>
</g>
</svg>
