<svg width="40" height="40" viewBox="0 0 40 40" fill="none" xmlns="http://www.w3.org/2000/svg">
<mask id="mask0_2066_348" style="mask-type:alpha" maskUnits="userSpaceOnUse" x="0" y="0" width="40" height="40">
<rect width="40" height="40" fill="#D9D9D9"/>
</mask>
<g mask="url(#mask0_2066_348)">
<path d="M8.54708 23.9742C8.25042 23.9742 8.00181 23.8733 7.80125 23.6717C7.60042 23.47 7.5 23.22 7.5 22.9217C7.5 22.6233 7.60042 22.3753 7.80125 22.1775C8.00181 21.9794 8.25042 21.8804 8.54708 21.8804H31.4529C31.7496 21.8804 31.9982 21.9812 32.1988 22.1829C32.3996 22.3846 32.5 22.6346 32.5 22.9329C32.5 23.2312 32.3996 23.4794 32.1988 23.6775C31.9982 23.8753 31.7496 23.9742 31.4529 23.9742H8.54708ZM8.54708 18.1196C8.25042 18.1196 8.00181 18.0187 7.80125 17.8171C7.60042 17.6154 7.5 17.3654 7.5 17.0671C7.5 16.7687 7.60042 16.5205 7.80125 16.3225C8.00181 16.1247 8.25042 16.0258 8.54708 16.0258H31.4529C31.7496 16.0258 31.9982 16.1267 32.1988 16.3283C32.3996 16.53 32.5 16.78 32.5 17.0783C32.5 17.3767 32.3996 17.6247 32.1988 17.8225C31.9982 18.0205 31.7496 18.1196 31.4529 18.1196H8.54708Z" fill="#161614"/>
</g>
</svg>
