<svg width="32" height="32" viewBox="0 0 32 32" fill="none" xmlns="http://www.w3.org/2000/svg">
<rect width="32" height="32" fill="#FB9B2A"/>
<path d="M21.0654 19.1305C21.0871 19.1244 21.1089 19.1186 21.1313 19.1129L21.1329 19.1124C25.786 17.9105 28.4131 13.3492 27.2083 8.61692L27.2083 8.61676C26.8101 7.05471 25.8698 5.59581 24.6716 4.50567C23.4754 3.41731 21.9847 2.6636 20.4632 2.57417L20.4631 2.57417C18.7944 2.47616 17.1155 2.49661 15.4594 2.51678C15.0484 2.52178 14.6389 2.52677 14.2313 2.52993C14.2311 2.52993 14.231 2.52993 14.2309 2.52993L14.2347 3.02991L21.0654 19.1305ZM21.0654 19.1305C21.1877 19.3107 21.3087 19.4888 21.4285 19.6655C21.9277 20.401 22.4081 21.1089 22.892 21.8154C23.5332 22.7501 24.1742 23.6798 24.8155 24.6099C25.3686 25.412 25.9218 26.2144 26.4755 27.0204C26.8979 27.6353 27.1793 28.2137 27.1817 28.7644C27.1843 29.3748 26.8506 29.8238 26.3603 30.1616L26.3595 30.1621C25.906 30.4732 25.3967 30.6172 24.8487 30.3878C24.366 30.1856 23.9424 29.7237 23.5181 29.112L23.5181 29.112C23.4339 28.9905 23.3496 28.869 23.2654 28.7475C21.3131 25.9323 19.358 23.1129 17.4576 20.2551L17.4575 20.255C17.1963 19.8619 16.957 19.6076 16.7052 19.4609C16.4688 19.3232 16.1822 19.2575 15.7726 19.3191C15.2728 19.3956 14.7615 19.3543 14.3281 19.316L14.328 19.316C13.8067 19.2697 13.3434 19.0917 13.0079 18.7607C12.6665 18.424 12.5034 17.9739 12.5091 17.4807L21.0654 19.1305ZM22.9494 14.5831C24.4099 12.9659 24.8709 11.0747 24.0575 9.00524L16.5595 6.13045C17.5672 6.1255 18.5598 6.12062 19.5616 6.16755L19.5619 6.16757C20.5598 6.21365 21.3784 6.50961 22.0356 7.00922C22.6953 7.51067 23.2197 8.23814 23.592 9.18774L23.5922 9.18814C24.3285 11.0615 23.9263 12.7553 22.5786 14.2476L22.9494 14.5831ZM22.9494 14.5831C21.8456 15.8029 20.4006 16.2026 18.8358 16.2254L22.5786 14.2477M22.9494 14.5831L22.5783 14.248C22.5784 14.2479 22.5785 14.2478 22.5786 14.2477M22.5786 14.2477C21.6005 15.3286 20.3119 15.7038 18.8285 15.7255L18.8281 15.7255C18.1513 15.736 17.4742 15.7348 16.7921 15.7337C16.7356 15.7336 16.6791 15.7335 16.6225 15.7334C15.8847 15.7323 15.1413 15.7322 14.3968 15.7484L14.3956 15.7484C13.8573 15.7613 13.3723 15.888 13.0188 16.2079C12.6547 16.5373 12.5146 16.9938 12.5091 17.4804L22.5786 14.2477ZM13.0024 4.19254L13.0024 4.19254L13.0024 4.19254Z" fill="white" stroke="white"/>
<path d="M10.4997 16.2144V16.5437V16.5651V16.5865V16.6079V16.6293V16.6507V16.6721V16.6935V16.7149V16.7363V16.7577V16.7791V16.8005V16.8219V16.8433V16.8647V16.8861V16.9075V16.9289V16.9503V16.9717V16.9931V17.0145V17.0359V17.0573V17.0787V17.1001V17.1215V17.1429V17.1643V17.1857V17.2071V17.2285V17.2499V17.2713V17.2926V17.314V17.3354V17.3568V17.3782V17.3996V17.421V17.4424V17.4638V17.4852V17.5066V17.528V17.5494V17.5708V17.5922V17.6136V17.635V17.6564V17.6778V17.6992V17.7206V17.742V17.7634V17.7848V17.8061V17.8275V17.8489V17.8703V17.8917V17.9131V17.9345V17.9559V17.9773V17.9987V18.0201V18.0415V18.0629V18.0843V18.1057V18.1271V18.1485V18.1699V18.1913V18.2127V18.234V18.2554V18.2768V18.2982V18.3196V18.341V18.3624V18.3838V18.4052V18.4266V18.448V18.4694V18.4908V18.5122V18.5336V18.555V18.5764V18.5978V18.6191V18.6405V18.6619V18.6833V18.7047V18.7261V18.7475V18.7689V18.7903V18.8117V18.8331V18.8545V18.8759V18.8973V18.9187V18.9401V18.9614V18.9828V19.0042V19.0256V19.047V19.0684V19.0898V19.1112V19.1326V19.154V19.1754V19.1968V19.2182V19.2396V19.261V19.2823V19.3037V19.3251V19.3465V19.3679V19.3893V19.4107V19.4321V19.4535V19.4749V19.4963V19.5177V19.5391V19.5605V19.5818V19.6032V19.6246V19.646V19.6674V19.6888V19.7102V19.7316V19.753V19.7744V19.7958V19.8172V19.8386V19.8599V19.8813V19.9027V19.9241V19.9455V19.9669V19.9883V20.0097V20.0311V20.0525V20.0739V20.0953V20.1167V20.138V20.1594V20.1808V20.2022V20.2236V20.245V20.2664V20.2878V20.3092V20.3306V20.352V20.3734V20.3948V20.4161V20.4375V20.4589V20.4803V20.5017V20.5231V20.5445V20.5659V20.5873V20.6087V20.6301V20.6515V20.6728V20.6942V20.7156V20.737V20.7584V20.7798V20.8012V20.8226V20.844V20.8654V20.8868V20.9082V20.9295V20.9509V20.9723V20.9937V21.0151V21.0365V21.0579V21.0793V21.1007V21.1221V21.1435V21.1649V21.1862V21.2076V21.229V21.2504V21.2718V21.2932V21.3146V21.336V21.3574V21.3788V21.4002V21.4216V21.4429V21.4643V21.4857V21.5071V21.5285V21.5499V21.5713V21.5927V21.6141V21.6355V21.6569V21.6783V21.6996V21.721V21.7424V21.7638V21.7852V21.8066V21.828V21.8494V21.8708V21.8922V21.9136V21.9349V21.9563V21.9777V21.9991V22.0205V22.0419V22.0633V22.0847V22.1061V22.1275V22.1489V22.1703V22.1916V22.213V22.2344V22.2558V22.2772V22.2986V22.32V22.3414V22.3628V22.3842V22.4056V22.427V22.4483V22.4697V22.4911V22.5125V22.5339V22.5553V22.5767V22.5981V22.6195V22.6409V22.6623V22.6836V22.705V22.7264V22.7478V22.7692V22.7906V22.812V22.8334V22.8548V22.8762V22.8976V22.919V22.9403V22.9617V22.9831V23.0045V23.0259V23.0473V23.0687V23.0901V23.1115V23.1329V23.1543V23.1757V23.197V23.2184V23.2398V23.2612V23.2826V23.304V23.3254V23.3468V23.3682V23.3896V23.411V23.4324V23.4537V23.4751V23.4965V23.5179V23.5393V23.5607V23.5821V23.6035V23.6249V23.6463V23.6677V23.6891V23.7105V23.7318V23.7532V23.7746V23.796V23.8174V23.8388V23.8602V23.8816V23.903V23.9244V23.9458V23.9672V23.9885V24.0099V24.0313V24.0527V24.0741V24.0955V24.1169V24.1383V24.1597V24.1811V24.2025V24.2239V24.2453V24.2666V24.288V24.3094V24.3308V24.3522V24.3736V24.395V24.4164V24.4378V24.4592V24.4806V24.502V24.5234V24.5448V24.5661V24.5875V24.6089V24.6303V24.6517V24.6731V24.6945V24.7159V24.7373V24.7587V24.7801V24.8015V24.8229V24.8443V24.8656V24.887V24.9084V24.9298V24.9512V24.9726V24.994V25.0154V25.0368V25.0582V25.0796V25.101V25.1224V25.1438V25.1652V25.1866V25.2079V25.2293V25.2507V25.2721V25.2935V25.3149V25.3363V25.3577V25.3791V25.4005V25.4219V25.4433V25.4647V25.4861V25.5075V25.5289V25.5502V25.5716V25.593V25.6144V25.6358V25.6572V25.6786V25.7V25.7214V25.7428V25.7642V25.7856V25.807V25.8284V25.8498V25.8712V25.8926V25.914V25.9353V25.9567V25.9781V25.9995V26.0209V26.0423V26.0637V26.0851V26.1065V26.1279V26.1493V26.1707V26.1921V26.2135V26.2349V26.2563V26.2777V26.2991V26.3205V26.3419V26.3633V26.3846V26.406V26.4274V26.4488V26.4702V26.4916V26.513V26.5344V26.5558V26.5772V26.5986V26.62V26.6414V26.6628V26.6842V26.7056V26.727V26.7484V26.7698V26.7912V26.8126V26.834V26.8554V26.8768V26.8982V26.9195V26.9409V26.9623V26.9837V27.0051V27.0265V27.0479V27.0693V27.0907V27.1121V27.1335V27.1549V27.1763V27.1977V27.2191V27.2405V27.2619V27.2833V27.3047V27.3261V27.3475V27.3689V27.3903V27.4117V27.4331V27.4545V27.4759V27.4973C10.4997 27.5426 10.4998 27.5886 10.4999 27.6351C10.5007 28.0419 10.5017 28.4911 10.439 28.9339L10.439 28.9341C10.3134 29.8194 9.53689 30.4191 8.70433 30.4932L8.70344 30.4932C8.25189 30.5326 7.79276 30.3973 7.42396 30.1687C7.05742 29.9415 6.72568 29.5871 6.59786 29.135L10.4997 16.2144ZM10.4997 16.2144L10.4785 16.2052M10.4997 16.2144L10.4785 16.2052M10.4785 16.2052V16.185V16.1627V16.1404V16.1181V16.0958V16.0735V16.0513V16.029V16.0067V15.9844V15.9621V15.9398V15.9176V15.8953V15.873V15.8507V15.8284V15.8061V15.7839V15.7616V15.7393V15.717V15.6947V15.6724V15.6502V15.6279V15.6056V15.5833V15.561V15.5387V15.5164V15.4942V15.4719V15.4496V15.4273V15.405V15.3827V15.3605V15.3382V15.3159V15.2936V15.2713V15.249V15.2268V15.2045V15.1822V15.1599V15.1376V15.1153V15.093V15.0708V15.0485V15.0262V15.0039V14.9816V14.9593V14.9371V14.9148V14.8925V14.8702V14.8479V14.8256V14.8033V14.7811V14.7588V14.7365V14.7142V14.6919V14.6696V14.6473V14.6251V14.6028V14.5805V14.5582V14.5359V14.5136V14.4913V14.4691V14.4468V14.4245V14.4022V14.3799V14.3576V14.3353V14.3131V14.2908V14.2685V14.2462V14.2239V14.2016V14.1793V14.1571V14.1348V14.1125V14.0902V14.0679V14.0456V14.0233V14.001V13.9788V13.9565V13.9342V13.9119V13.8896V13.8673V13.845V13.8228V13.8005V13.7782V13.7559V13.7336V13.7113V13.689V13.6667V13.6445V13.6222V13.5999V13.5776V13.5553V13.533V13.5107V13.4885V13.4662V13.4439V13.4216V13.3993V13.377V13.3547V13.3324V13.3102V13.2879V13.2656V13.2433V13.221V13.1987V13.1764V13.1541V13.1319V13.1096V13.0873V13.065V13.0427V13.0204V12.9981V12.9758V12.9536V12.9313V12.909V12.8867V12.8644V12.8421V12.8198V12.7975V12.7753V12.753V12.7307V12.7084V12.6861V12.6638V12.6415V12.6192V12.5969V12.5747V12.5524V12.5301V12.5078V12.4855V12.4632V12.4409V12.4186V12.3964V12.3741V12.3518V12.3295V12.3072V12.2849V12.2626V12.2403V12.2181V12.1958V12.1735V12.1512V12.1289V12.1066V12.0843V12.062V12.0397V12.0175V11.9952V11.9729V11.9506V11.9283V11.906V11.8837V11.8614V11.8392V11.8169V11.7946V11.7723V11.75V11.7277V11.7054V11.6831V11.6608V11.6386V11.6163V11.594V11.5717V11.5494V11.5271V11.5048V11.4825V11.4602V11.438V11.4157V11.3934V11.3711V11.3488V11.3265V11.3042V11.2819V11.2597V11.2374V11.2151V11.1928V11.1705V11.1482V11.1259V11.1036V11.0813V11.0591V11.0368V11.0145V10.9922V10.9699V10.9476V10.9253V10.903V10.8807V10.8585V10.8362V10.8139V10.7916V10.7693V10.747V10.7247V10.7024V10.6801V10.6579V10.6356V10.6133V10.591V10.5687V10.5464V10.5241V10.5018V10.4796V10.4573V10.435V10.4127V10.3904V10.3681V10.3458V10.3235V10.3012V10.279V10.2567V10.2344V10.2121V10.1898V10.1675V10.1452V10.1229V10.1006V10.0784V10.0561V10.0338V10.0115V9.98921V9.96692V9.94463V9.92234V9.90005V9.87776V9.85548V9.83319V9.8109V9.78861V9.76632V9.74403V9.72175V9.69946V9.67717V9.65488V9.63259V9.6103V9.58802V9.56573V9.54344V9.52115V9.49886V9.47657V9.45429V9.432V9.40971V9.38742V9.36513V9.34285V9.32056V9.29827V9.27598V9.25369V9.23141V9.20912V9.18683V9.16454V9.14225V9.11997V9.09768V9.07539V9.0531V9.03081V9.00853V8.98624V8.96395V8.94166V8.91937V8.89709V8.8748V8.85251V8.83022V8.80794V8.78565V8.76336V8.74107V8.71879V8.6965V8.67421V8.65192V8.62963V8.60735V8.58506V8.56277V8.54048V8.5182V8.49591V8.47362V8.45134V8.42905V8.40676V8.38447V8.36219V8.3399V8.31761V8.29532V8.27304V8.25075V8.22846V8.20618V8.18389V8.1616V8.13931V8.11703V8.09474V8.07245V8.05017V8.02788V8.00559V7.98331V7.96102V7.93873V7.91644V7.89416V7.87187V7.84958V7.8273V7.80501V7.78272V7.76044V7.73815V7.71586V7.69358V7.67129V7.649V7.62672V7.60443V7.58215V7.55986V7.53757V7.51529V7.493V7.47071V7.44843V7.42614V7.40386V7.38157V7.35928V7.337V7.31471V7.29243V7.27014V7.24785V7.22557V7.20328V7.181V7.15871V7.13642V7.11414V7.09185V7.06957V7.04728V7.025V7.00271V6.98043V6.95814V6.93585V6.91357V6.89128V6.869V6.84671V6.82443V6.80214V6.77986V6.75757V6.73529V6.713V6.69072V6.66843V6.64615V6.62386V6.60158V6.57929V6.55701V6.53472V6.51244V6.49015V6.46787V6.44558V6.4233V6.40102V6.37873V6.35645V6.33416V6.31188V6.28959V6.26731V6.24502V6.22274V6.20046V6.17817V6.15589V6.1336V6.11132V6.08904V6.06675V6.04447V6.02218V5.9999V5.97762V5.95533V5.93305V5.91077V5.88848V5.8662V5.84392V5.82163V5.79935V5.77707V5.75478V5.7325V5.71022V5.68793V5.66565V5.64337V5.62108V5.5988V5.57652V5.55424V5.53195V5.50967V5.48739V5.4651V5.44282V5.42054V5.39826V5.37597V5.35369V5.33141V5.30913V5.28685V5.26456V5.24228V5.22V5.19772V5.17543V5.15315V5.13087C10.4785 5.07312 10.4789 5.01277 10.4794 4.95038C10.4817 4.67155 10.4842 4.3521 10.4454 4.04251L10.4454 4.04251L10.4452 4.04101C10.3891 3.60429 10.2246 3.21739 9.90014 2.93657C9.58298 2.66204 9.17423 2.54244 8.73482 2.50924L8.7342 2.50919C8.2546 2.47355 7.7971 2.53934 7.41353 2.74965C7.01883 2.96606 6.74131 3.31501 6.60574 3.76317C6.5003 4.11025 6.50121 4.47837 6.50189 4.7515C6.50194 4.77266 6.50199 4.79325 6.50199 4.81322C6.49934 12.5741 6.49934 20.3329 6.50197 28.0916L6.50201 28.0958C6.50227 28.1257 6.50236 28.157 6.50246 28.1896C6.50324 28.4546 6.50427 28.8046 6.59781 29.1348L10.4785 16.2052Z" fill="white" stroke="white"/>
</svg>
