<svg width="13" height="20" viewBox="0 0 13 20" fill="none" xmlns="http://www.w3.org/2000/svg">
<path d="M7.8897 11.7729C8.44556 12.5661 8.95682 13.3003 9.47286 14.0314C10.3297 15.2434 11.1914 16.4507 12.0483 17.6612C12.6392 18.4957 12.6392 18.9783 12.0578 19.367C11.5338 19.7158 11.1134 19.5613 10.5145 18.7235C9.05079 16.6753 7.58549 14.6286 6.16319 12.5533C5.76183 11.9672 5.32861 11.6423 4.59914 11.749C4.28856 11.7952 3.96205 11.7713 3.6467 11.7442C3.01757 11.6901 2.6608 11.3397 2.66717 10.8157C2.67355 10.263 2.98731 9.96833 3.67218 9.9524C4.73293 9.9301 5.79368 9.9524 6.85443 9.93647C7.97889 9.92054 9.01734 9.64182 9.81052 8.79131C10.8601 7.66366 11.1914 6.34489 10.6069 4.90189C10.0335 3.48278 8.95682 2.645 7.39277 2.57492C6.30654 2.52555 5.21871 2.5574 4.13088 2.54944C3.89198 2.54785 3.64829 2.56059 3.41734 2.51599C2.9236 2.42043 2.63532 2.03022 2.6624 1.54603C2.69107 1.04751 2.9905 0.738522 3.54795 0.735336C5.03236 0.724187 6.52155 0.681184 8.00278 0.765599C9.98572 0.878682 11.9894 2.68642 12.5229 4.71713C13.3416 7.83727 11.5609 10.8236 8.4153 11.612C8.26717 11.6486 8.12383 11.7012 7.89129 11.7713L7.8897 11.7729Z" fill="#FB9B2A" stroke="3"/>
<path d="M2.21796 10.1547C2.21796 12.6998 2.21796 15.2434 2.21796 17.7886C2.21796 18.1071 2.22274 18.4272 2.18451 18.741C2.13195 19.171 1.79907 19.4896 1.41364 19.5294C1.02023 19.5692 0.566311 19.2539 0.464377 18.835C0.415003 18.6327 0.419779 18.4145 0.418187 18.2027C0.416594 12.7954 0.416594 7.38811 0.418187 1.97924C0.418187 1.769 0.415003 1.54921 0.467563 1.34852C0.587017 0.889822 0.937413 0.67799 1.43593 0.720993C1.88986 0.760811 2.13355 0.996532 2.1877 1.4855C2.21318 1.72122 2.20522 1.96172 2.20522 2.20063C2.20522 4.85091 2.20522 7.50279 2.20522 10.1531H2.21477L2.21796 10.1547Z" fill="#FB9B2A" stroke="3"/>
</svg>
